<svg width="810" height="129" viewBox="0 0 810 129" fill="none" xmlns="http://www.w3.org/2000/svg">
<path d="M130.088 -1.43051e-05L49.6875 341.1H0.1875L80.5875 -1.43051e-05H130.088ZM266.025 -1.43051e-05L185.625 341.1H136.125L216.525 -1.43051e-05H266.025ZM401.963 -1.43051e-05L321.563 341.1H272.063L352.463 -1.43051e-05H401.963ZM537.9 -1.43051e-05L457.5 341.1H408L488.4 -1.43051e-05H537.9ZM673.838 -1.43051e-05L593.438 341.1H543.938L624.338 -1.43051e-05H673.838ZM809.775 -1.43051e-05L729.375 341.1H679.875L760.275 -1.43051e-05H809.775Z" fill="#F5FB51"/>
</svg>
